<svg xmlns="http://www.w3.org/2000/svg" viewBox="-720 -1815 6600 6600" width="512" height="512">
<defs><clipPath id="znak"><rect x="100" y="100" width="4960" height="2770"/></clipPath></defs>
<rect x="-720" y="-1815" width="6600" height="6600" fill="#FAF6EF"/>
<g clip-path="url(#znak)">
<g transform="translate(0.000000,5166.000000) scale(0.100000,-0.100000)" fill="#74aaa9"><path d="M28018 48351 c-103 -69 -377 -329 -500 -474 -57 -67 -135 -156 -175
-198 -89 -96 -232 -287 -303 -405 -30 -49 -71 -113 -93 -142 -61 -84 -113
-188 -171 -344 -30 -80 -68 -176 -84 -214 -285 -650 -402 -1513 -306 -2264 32
-246 107 -588 220 -995 35 -125 115 -309 255 -583 291 -571 326 -583 684 -232
110 108 245 234 300 281 227 191 227 262 2 577 -137 192 -183 290 -302 642
-109 323 -164 546 -190 768 -8 70 -19 150 -25 177 -5 28 -14 135 -20 239 -6
104 -15 219 -20 255 -38 264 32 864 135 1151 9 25 29 99 45 165 16 67 43 159
60 205 17 47 49 156 71 243 67 261 242 633 433 920 146 220 165 277 92 277
-24 0 -55 -14 -108 -49z M23594 48345 c-13 -51 10 -104 237 -545 73 -142 210
-532 265 -750 8 -36 33 -126 54 -200 49 -171 165 -675 196 -845 30 -170 17
-739 -26 -1090 -10 -88 -24 -202 -30 -253 -18 -162 -62 -338 -145 -592 -25
-74 -55 -169 -67 -210 -50 -167 -213 -455 -365 -645 -146 -182 -143 -261 16
-373 232 -163 312 -224 444 -341 162 -144 206 -176 255 -186 91 -19 206 105
303 327 17 40 87 190 154 333 139 294 150 324 205 548 22 89 51 199 64 244 34
111 82 410 101 623 9 96 20 225 26 285 7 83 6 171 -6 360 -21 343 -22 359 -50
495 -14 66 -31 163 -40 215 -8 52 -28 136 -44 187 -17 51 -46 151 -66 222 -31
113 -175 519 -266 751 -53 134 -184 399 -242 488 -161 247 -488 660 -624 787
-167 157 -331 235 -349 165z M17285 48308 c-535 -35 -993 -170 -936 -276 17
-33 67 -43 251 -53 96 -5 191 -11 210 -14 19 -2 100 -9 180 -15 80 -6 208 -19
285 -30 77 -10 201 -24 276 -29 107 -8 159 -18 250 -46 63 -19 185 -56 272
-81 144 -41 337 -114 582 -221 547 -238 1470 -973 1719 -1368 35 -55 98 -154
141 -220 76 -118 223 -408 403 -795 112 -240 220 -621 266 -935 40 -273 58
-425 65 -571 17 -310 42 -329 461 -338 384 -9 614 3 676 35 94 47 118 162 75
357 -11 48 -27 139 -36 202 -9 63 -29 171 -45 240 -16 69 -36 166 -44 215 -37
211 -76 347 -188 650 -177 478 -517 1091 -769 1386 -41 47 -101 117 -134 156
-33 38 -87 104 -120 147 -33 42 -94 105 -135 139 -41 34 -118 102 -170 151
-52 48 -133 118 -180 154 -47 36 -137 107 -200 157 -162 129 -199 152 -658
412 -460 261 -1130 493 -1611 558 -269 36 -632 50 -886 33z M33875 48299
c-249 -7 -395 -23 -575 -64 -58 -13 -125 -26 -150 -30 -25 -4 -81 -18 -125
-32 -44 -13 -128 -34 -187 -47 -58 -14 -162 -47 -230 -74 -67 -27 -154 -59
-193 -72 -131 -42 -495 -211 -705 -328 -323 -178 -677 -435 -870 -630 -75 -75
-176 -175 -226 -222 -50 -47 -125 -128 -166 -180 -41 -52 -104 -127 -139 -166
-137 -148 -339 -428 -410 -567 -29 -56 -72 -133 -97 -172 -159 -248 -281 -542
-392 -950 -216 -795 -296 -1273 -232 -1392 42 -77 70 -82 507 -85 494 -2 577
10 650 95 70 81 97 228 88 477 -8 218 52 627 127 865 16 50 40 130 55 178 14
48 42 123 62 165 19 42 52 118 73 167 196 465 250 568 411 786 35 48 98 133
139 189 105 145 384 425 535 537 66 50 159 123 206 164 76 65 203 159 437 320
464 322 1160 601 1633 654 74 8 215 26 314 40 153 21 243 26 595 33 488 11
528 18 492 97 -26 57 -250 154 -437 189 -300 56 -636 72 -1190 55z M19313
38849 c-80 -39 -416 -533 -532 -780 -21 -46 -78 -166 -125 -266 -47 -99 -86
-183 -86 -186 0 -3 -34 -79 -76 -169 -100 -215 -116 -256 -164 -428 -22 -80
-51 -181 -64 -225 -13 -44 -42 -179 -64 -300 -55 -295 -60 -325 -72 -435 -6
-52 -19 -140 -30 -195 -26 -139 -52 -497 -50 -700 1 -93 2 -393 1 -665 0 -272
2 -508 5 -525 3 -16 0 -138 -6 -270 -6 -132 -13 -366 -16 -520 -2 -154 -8
-341 -14 -415 -5 -74 -10 -214 -10 -311 0 -97 -7 -243 -14 -325 -57 -586 -41
-695 90 -615 56 34 290 335 344 441 108 214 331 811 391 1045 11 44 40 145 64
225 23 80 52 201 64 270 11 69 32 163 45 210 32 109 38 148 81 485 20 154 42
316 50 360 16 87 50 338 60 450 4 39 15 115 26 170 10 55 25 156 34 224 9 68
27 183 41 255 13 72 33 186 44 253 11 68 33 165 49 215 16 51 41 136 56 188
30 109 149 388 210 493 23 40 69 117 102 172 33 55 82 138 108 185 26 47 79
127 118 179 140 190 141 242 8 406 -142 173 -167 208 -240 335 -143 247 -205
390 -256 589 -46 181 -85 223 -172 180z M32233 38830 c-35 -14 -58 -61 -114
-229 -78 -237 -265 -594 -426 -813 -135 -185 -138 -223 -22 -394 26 -39 79
-129 117 -200 38 -71 93 -167 121 -214 212 -347 414 -1032 481 -1630 12 -101
32 -244 45 -316 36 -194 63 -369 70 -454 18 -235 51 -513 86 -720 21 -129 43
-278 49 -330 21 -179 67 -343 171 -612 38 -97 69 -179 69 -182 0 -10 129 -337
180 -456 27 -63 69 -168 94 -232 64 -165 102 -237 195 -364 235 -326 383 -300
331 58 -14 98 -49 533 -60 743 -5 99 -14 245 -20 325 -18 252 -28 943 -29
1935 -1 1044 -1 1032 -61 1275 -21 85 -48 200 -59 255 -118 540 -228 904 -357
1175 -35 74 -100 230 -144 345 -128 333 -212 477 -492 849 -135 179 -170 208
-225 186z M45575 35311 c-23 -11 -85 -65 -145 -127 -143 -146 -290 -276 -378
-332 -216 -139 -389 -261 -416 -295 -65 -81 -35 -217 88 -405 161 -244 313
-212 684 142 293 281 417 658 310 944 -31 83 -74 105 -143 73z M5978 35243
c-155 -163 -6 -737 254 -978 362 -336 619 -372 745 -104 142 299 123 399 -94
508 -227 113 -381 226 -668 489 -131 119 -186 139 -237 85z M25520 33330
c-491 -56 -1056 -309 -1384 -620 -371 -352 -688 -805 -815 -1163 -37 -105
-106 -565 -117 -777 -24 -476 105 -1016 336 -1415 35 -60 186 -353 335 -650
150 -297 290 -569 311 -605 22 -36 64 -110 94 -165 30 -55 115 -199 190 -320
76 -121 172 -281 215 -355 79 -137 234 -370 355 -535 37 -49 108 -151 159
-225 50 -74 132 -193 181 -263 48 -70 119 -187 156 -258 187 -364 296 -373
504 -44 30 47 76 114 101 148 130 175 237 331 281 410 27 48 82 131 122 185
101 135 185 262 244 368 122 220 215 357 311 458 169 178 282 347 367 551 76
179 116 251 252 457 141 212 192 300 245 423 122 282 210 496 241 581 19 55
51 144 71 199 166 455 209 987 110 1360 -13 50 -31 128 -40 174 -101 504 -379
999 -806 1433 -256 260 -396 350 -743 478 -337 125 -950 206 -1276 170z m560
-866 c386 -58 816 -279 1012 -520 292 -360 501 -790 515 -1059 24 -465 -126
-910 -438 -1300 -323 -405 -476 -490 -1144 -632 -398 -84 -855 -1 -1189 217
-323 211 -655 733 -735 1154 -126 665 36 1193 501 1639 458 438 902 589 1478
501z M39800 31580 c-25 -5 -119 -22 -210 -40 -575 -109 -978 -166 -1250 -177
-288 -11 -583 -7 -730 11 -69 9 -190 20 -270 26 -80 6 -217 24 -305 41 -372
68 -387 57 -465 -351 -23 -118 -63 -300 -90 -405 -143 -561 -152 -554 680
-570 571 -11 948 13 1238 79 59 14 179 34 267 46 90 12 215 36 285 56 69 19
177 43 241 54 651 111 942 215 979 349 24 87 -11 672 -46 768 -38 103 -152
143 -324 113z M11639 31561 c-102 -32 -113 -67 -117 -371 -9 -569 18 -612 435
-724 398 -107 477 -126 563 -141 52 -9 142 -25 199 -36 57 -10 180 -31 273
-45 94 -14 223 -36 287 -49 159 -32 399 -62 556 -70 72 -3 208 -13 304 -21
187 -18 771 -7 959 16 207 26 248 93 187 302 -14 47 -43 162 -65 254 -23 93
-58 224 -80 292 -22 67 -51 178 -65 245 -60 290 -115 320 -440 248 -221 -49
-300 -61 -465 -71 -85 -6 -252 -16 -370 -25 -384 -26 -784 -6 -1098 55 -94 18
-866 130 -987 144 -27 2 -62 1 -76 -3z M3785 19165 c-345 -50 -481 -78 -582
-120 -48 -20 -126 -50 -173 -67 -327 -117 -767 -444 -1044 -778 -310 -372
-509 -802 -616 -1334 -146 -727 -191 -1333 -121 -1651 12 -54 31 -160 42 -235
170 -1127 632 -1796 1566 -2272 483 -245 1194 -344 1868 -258 83 10 193 24
245 30 92 10 383 80 505 122 163 55 617 303 760 416 727 575 1155 1624 1131
2777 -9 408 -29 683 -60 815 -13 58 -32 155 -41 215 -42 278 -178 645 -331
892 -35 57 -80 136 -100 176 -218 433 -827 970 -1274 1122 -405 138 -630 173
-1150 180 -385 5 -385 5 -625 -30z m845 -1170 c366 -65 803 -415 985 -790 183
-375 266 -818 267 -1425 1 -473 -21 -686 -111 -1076 -128 -556 -707 -1078
-1256 -1134 -911 -93 -1610 521 -1759 1545 -133 914 13 1848 360 2294 280 360
577 528 1069 605 61 9 353 -3 445 -19z M43355 19169 c-436 -64 -692 -309 -889
-852 -19 -51 -55 -139 -81 -197 -26 -57 -77 -192 -114 -300 -38 -107 -89 -244
-115 -304 -26 -60 -63 -148 -81 -195 -18 -47 -53 -131 -77 -186 -25 -55 -71
-165 -102 -245 -31 -80 -75 -185 -96 -235 -22 -49 -53 -128 -69 -175 -16 -47
-64 -175 -106 -285 -42 -110 -96 -256 -120 -325 -104 -297 -138 -391 -180
-485 -24 -55 -79 -195 -121 -310 -78 -217 -121 -323 -205 -506 -47 -105 -112
-268 -190 -483 -22 -59 -58 -147 -80 -195 -23 -47 -54 -117 -69 -156 -16 -38
-42 -99 -58 -135 -297 -648 -147 -1034 439 -1130 447 -72 704 143 903 755 254
777 257 782 449 803 105 12 2146 -1 2243 -13 54 -7 122 -51 156 -101 31 -45
167 -378 194 -475 28 -102 158 -420 226 -552 148 -288 349 -407 685 -407 562
0 815 370 611 895 -120 310 -193 485 -239 577 -57 113 -145 318 -212 493 -26
66 -96 247 -156 402 -60 155 -124 333 -141 395 -17 62 -47 148 -66 190 -53
118 -152 362 -189 468 -63 180 -225 580 -298 737 -41 87 -78 169 -82 183 -4
14 -32 80 -61 147 -30 67 -73 175 -95 240 -23 65 -66 171 -95 235 -30 65 -81
186 -113 270 -32 84 -77 194 -98 243 -22 50 -71 171 -108 270 -140 377 -288
633 -433 751 -178 145 -513 230 -767 193z m133 -1889 c38 -36 113 -218 203
-495 28 -88 73 -214 99 -281 27 -66 56 -147 65 -180 29 -100 129 -359 213
-556 246 -570 236 -589 -328 -591 -1007 -4 -1063 16 -957 339 20 60 52 166 72
236 19 70 48 162 64 205 16 43 39 116 51 163 13 47 39 126 58 175 19 50 45
128 59 174 13 46 47 141 74 209 28 69 61 172 75 229 69 295 172 447 252 373z
M36235 19123 c-392 -83 -588 -334 -715 -918 -17 -77 -42 -176 -55 -220 -13
-44 -40 -148 -59 -230 -19 -83 -54 -213 -80 -290 -25 -77 -56 -185 -69 -240
-35 -143 -139 -535 -187 -705 -22 -80 -56 -212 -76 -295 -19 -82 -46 -192 -59
-245 -13 -52 -35 -158 -50 -235 -14 -77 -37 -183 -50 -235 -13 -52 -35 -151
-48 -220 -46 -234 -139 -480 -188 -495 -54 -17 -88 43 -147 260 -23 83 -53
188 -67 234 -14 47 -34 150 -46 230 -11 80 -40 225 -64 321 -24 96 -53 222
-65 280 -11 58 -41 178 -65 266 -25 89 -59 226 -76 305 -16 79 -41 187 -54
239 -13 52 -31 133 -40 180 -9 47 -37 147 -61 223 -25 77 -56 204 -70 283 -14
80 -39 190 -55 246 -17 56 -39 158 -50 227 -92 577 -225 840 -485 963 -183 86
-581 76 -756 -19 -255 -139 -308 -390 -192 -901 25 -108 59 -271 75 -361 16
-90 49 -225 73 -300 89 -276 137 -450 166 -601 16 -85 52 -227 79 -315 73
-236 136 -454 170 -590 17 -66 64 -234 106 -374 41 -139 91 -319 111 -400 19
-80 62 -228 95 -329 83 -255 123 -394 163 -562 19 -80 46 -181 60 -225 14 -44
34 -118 46 -165 11 -47 41 -146 65 -220 24 -74 61 -193 83 -265 64 -208 139
-411 199 -535 156 -323 461 -459 883 -395 377 56 591 263 751 725 25 74 65
187 88 250 91 247 131 415 246 1025 20 105 54 244 75 310 22 66 49 163 60 215
12 52 39 150 60 218 22 68 51 181 64 251 14 70 40 175 60 233 19 59 47 169 61
245 13 77 41 191 60 254 20 63 47 179 61 259 51 292 147 388 218 219 32 -76
186 -635 236 -854 29 -126 70 -293 92 -370 22 -77 64 -237 95 -355 30 -118 71
-269 90 -335 19 -66 52 -187 73 -270 21 -82 45 -170 54 -195 20 -52 59 -206
81 -312 8 -40 33 -131 54 -203 39 -126 73 -248 152 -543 163 -604 385 -800
899 -790 405 8 629 149 810 507 103 205 345 990 395 1281 13 80 40 200 59 266
19 67 44 169 55 227 12 59 35 144 52 189 17 46 46 139 64 208 33 125 107 388
236 835 38 132 83 301 99 375 17 74 44 176 60 225 16 50 41 140 55 200 15 61
46 171 70 245 24 74 57 203 75 285 17 83 42 202 56 265 180 817 193 1013 83
1232 -110 218 -318 318 -639 305 -445 -17 -578 -220 -755 -1147 -21 -107 -73
-334 -116 -505 -42 -170 -85 -353 -94 -405 -8 -52 -31 -151 -50 -220 -19 -69
-53 -210 -75 -315 -23 -104 -56 -246 -75 -315 -19 -69 -44 -183 -55 -255 -11
-71 -45 -227 -75 -345 -30 -118 -77 -309 -105 -425 -63 -263 -85 -328 -122
-371 -84 -95 -131 -7 -242 456 -25 102 -63 242 -85 311 -22 70 -47 167 -56
217 -15 86 -29 135 -75 252 -12 30 -30 98 -40 150 -10 52 -37 157 -60 233 -22
75 -54 203 -70 284 -16 82 -44 198 -63 259 -20 61 -45 163 -57 227 -11 64 -37
174 -56 244 -19 71 -48 184 -64 253 -16 69 -38 152 -50 185 -11 33 -50 175
-86 315 -136 530 -188 646 -352 775 -174 139 -480 201 -727 148z M15456 19115
c-238 -60 -427 -239 -480 -455 -40 -164 -41 -197 -38 -1050 1 -454 -2 -1160
-8 -1570 -7 -510 -7 -845 0 -1060 6 -173 14 -675 19 -1115 9 -888 6 -855 80
-1017 117 -261 292 -358 640 -358 308 0 474 84 583 296 59 113 60 114 69 699
18 1106 12 1046 130 1221 131 195 430 526 538 596 118 75 192 18 388 -297 31
-49 95 -144 142 -210 47 -66 154 -230 236 -364 83 -133 201 -319 263 -413 61
-93 141 -218 176 -276 144 -244 230 -380 290 -461 35 -47 76 -106 91 -131 161
-259 374 -506 496 -574 184 -101 561 -123 742 -42 486 215 482 675 -10 1303
-51 65 -127 168 -170 230 -43 61 -114 159 -158 218 -181 244 -233 316 -305
430 -42 66 -105 159 -141 207 -120 162 -186 262 -298 448 -141 232 -237 380
-373 573 -265 375 -257 406 231 902 109 110 242 250 297 310 54 61 187 200
295 310 107 110 224 236 260 280 35 44 93 111 127 150 319 352 456 672 369
859 -130 280 -464 409 -819 317 -100 -26 -129 -42 -273 -146 -347 -253 -646
-559 -1096 -1120 -320 -400 -1229 -1345 -1322 -1375 -113 -35 -138 113 -117
690 6 162 13 414 15 560 3 146 10 333 16 416 43 600 -96 909 -448 1001 -125
32 -345 41 -437 18z M26910 19114 c-187 -38 -364 -181 -423 -341 -63 -173 11
-518 167 -779 29 -49 83 -143 121 -209 37 -66 107 -181 155 -255 92 -144 182
-297 199 -342 15 -39 118 -209 226 -373 119 -180 313 -496 400 -650 37 -66 91
-159 120 -206 29 -47 66 -112 83 -145 17 -33 64 -109 105 -169 41 -61 93 -146
117 -190 24 -44 74 -128 112 -187 77 -122 100 -170 117 -247 18 -84 34 -1225
20 -1441 -31 -479 34 -798 191 -944 292 -270 980 -201 1140 115 79 155 82 204
84 1184 2 759 4 848 20 924 44 211 101 337 267 593 138 213 201 322 301 522
44 89 106 206 138 261 31 55 90 161 130 235 41 74 97 173 125 220 28 47 71
121 95 165 24 44 65 113 92 154 61 91 144 225 283 457 59 98 121 198 137 221
28 42 131 225 234 418 189 355 187 602 -9 811 -209 224 -666 265 -909 83 -184
-138 -398 -454 -578 -856 -29 -65 -70 -147 -90 -183 -20 -36 -83 -155 -140
-265 -57 -110 -142 -272 -191 -360 -87 -161 -119 -217 -288 -509 -50 -87 -109
-193 -131 -235 -138 -265 -220 -221 -475 254 -65 121 -153 274 -195 340 -43
66 -97 158 -120 205 -23 46 -72 136 -108 200 -36 63 -184 351 -329 638 -296
589 -293 583 -417 707 -156 154 -242 185 -521 191 -134 2 -199 -1 -255 -12z
M21785 19100 c-593 -26 -815 -260 -815 -863 0 -73 -5 -184 -11 -247 -6 -63
-13 -340 -16 -615 -3 -275 -5 -525 -6 -555 0 -30 3 -239 9 -465 9 -398 9
-1606 0 -2225 -3 -180 0 -366 6 -455 7 -82 11 -249 9 -370 -6 -583 170 -801
664 -822 375 -15 596 66 681 252 43 93 84 530 71 745 -3 47 1 173 9 280 7 108
14 352 14 545 1 735 -6 724 421 732 682 14 828 -54 1008 -468 32 -74 131 -276
219 -449 88 -173 175 -351 192 -394 17 -44 54 -127 82 -185 27 -58 71 -156 98
-216 115 -266 326 -625 414 -702 258 -227 894 -189 1094 65 97 123 131 339 79
502 -41 128 -116 307 -167 400 -32 58 -114 213 -183 345 -68 132 -157 296
-197 365 -87 150 -455 867 -475 928 -42 122 -16 158 256 357 478 349 771 866
801 1415 19 347 -19 617 -122 857 -152 354 -330 586 -576 753 -60 40 -152 104
-204 141 -122 86 -168 108 -342 168 -354 120 -487 152 -713 171 -151 12 -2057
20 -2300 10z m2097 -1128 c456 -123 729 -453 731 -887 3 -508 -244 -787 -778
-880 -113 -20 -1133 -24 -1237 -5 -137 25 -175 72 -189 234 -13 146 -12 1356
1 1406 23 87 99 139 220 150 194 17 1171 3 1252 -18z M49485 19099 c-204 -42
-393 -245 -450 -484 -19 -81 -39 -636 -30 -820 3 -60 8 -360 10 -665 3 -305 9
-850 14 -1210 18 -1277 11 -1483 -65 -1785 -80 -315 -293 -475 -691 -516 -151
-15 -221 -8 -433 47 -355 91 -473 69 -670 -126 -251 -247 -214 -662 75 -860
262 -180 855 -300 1340 -271 1039 61 1655 674 1770 1761 40 378 59 4136 21
4325 -68 343 -204 530 -432 590 -73 20 -386 29 -459 14z M10576 19083 c-4 -4
-384 -8 -844 -9 -942 -1 -907 2 -1061 -79 -202 -106 -304 -273 -321 -529 -5
-72 -12 -162 -16 -201 -3 -38 -8 -689 -9 -1445 -2 -756 -7 -1577 -11 -1825
-11 -652 5 -1817 25 -1947 48 -299 228 -482 510 -519 95 -12 1817 -12 2131 1
278 11 629 58 787 106 46 13 151 43 235 65 656 172 1358 781 1650 1432 378
841 419 2155 96 3047 -223 615 -666 1173 -1153 1454 -296 170 -891 376 -1214
421 -203 27 -785 48 -805 28z m4 -1178 c157 -8 323 -19 370 -25 47 -5 110 -10
140 -10 396 -2 903 -340 1145 -766 226 -395 353 -1186 276 -1714 -11 -80 -26
-190 -31 -245 -36 -338 -361 -887 -658 -1110 -177 -133 -478 -253 -743 -295
-132 -22 -1161 -26 -1215 -5 -126 48 -130 73 -127 780 0 116 0 325 -1 465 0
140 -1 458 0 705 0 248 0 704 0 1015 0 951 11 1102 91 1158 84 58 291 71 753
47z M12798 11803 c-37 -41 -46 -79 -58 -268 -22 -337 -69 -707 -115 -905 -68
-292 -84 -367 -100 -485 -39 -290 -82 -502 -167 -829 -85 -328 -92 -343 -223
-469 -212 -202 -266 -453 -155 -713 60 -140 64 -184 56 -614 -12 -666 -13
-669 -221 -711 -196 -39 -220 -115 -148 -454 35 -166 41 -707 10 -935 -10 -69
-20 -204 -23 -300 -9 -297 -24 -330 -176 -403 -181 -87 -173 -56 -173 -667 -1
-272 -4 -551 -9 -621 -20 -309 77 -428 549 -669 376 -192 986 -274 1425 -191
223 41 344 72 438 110 53 22 145 58 203 81 193 74 400 224 450 326 25 52 25
63 21 374 -2 107 -1 391 2 630 3 281 1 449 -6 475 -17 66 -78 117 -174 143
-225 64 -236 88 -210 489 54 828 56 866 46 983 -5 63 -10 181 -10 261 0 237
-30 295 -194 373 -177 84 -177 86 -175 672 2 496 5 544 50 671 86 247 21 483
-190 691 -157 155 -168 177 -201 442 -11 85 -27 193 -36 240 -9 47 -33 186
-54 310 -39 227 -151 790 -195 975 -41 173 -59 359 -81 800 -3 66 -10 135 -16
152 -20 66 -94 85 -140 36z m123 -3769 c125 -40 134 -75 132 -502 -4 -571 -20
-622 -191 -622 -197 0 -238 84 -249 510 -13 580 45 697 308 614z m-29 -2315
c260 -55 376 -322 267 -614 -43 -117 -96 -145 -270 -145 -260 0 -384 123 -396
396 -13 264 153 415 399 363z"/></g>
<g transform="translate(0.000000,5166.000000) scale(0.100000,-0.100000)" fill="#22437f"><path d="M20200 50433 c-52 -2 -293 -7 -535 -12 -343 -8 -454 -13 -503 -25
-287 -72 -415 -322 -291 -569 84 -165 210 -224 579 -267 798 -93 1797 -422
2266 -745 594 -410 1024 -861 1371 -1440 439 -729 573 -1196 573 -1987 0 -477
-229 -1235 -384 -1274 -65 -16 -89 25 -151 257 -483 1802 -1152 2788 -2548
3758 -487 338 -883 532 -1337 655 -824 224 -1326 295 -1995 283 -1360 -24
-2704 -613 -3606 -1578 -745 -797 -1117 -1353 -1179 -1761 -37 -248 127 -443
375 -443 149 0 202 28 355 189 524 551 879 845 1302 1075 92 50 250 141 350
203 770 470 1582 577 2758 362 448 -81 822 -263 1400 -679 728 -523 1274
-1367 1416 -2185 49 -288 21 -309 -280 -211 -431 141 -656 163 -1861 182 -853
13 -858 13 -963 -107 -152 -172 -90 -572 192 -1230 115 -268 397 -597 722
-841 235 -177 235 -181 -28 -414 -243 -215 -744 -719 -938 -944 -303 -350
-552 -667 -1215 -1550 -391 -521 -554 -691 -893 -934 -702 -502 -2073 -1101
-3112 -1361 -151 -38 -381 -99 -510 -135 -129 -36 -487 -128 -795 -205 -647
-161 -877 -228 -1199 -345 -570 -207 -975 -397 -1386 -650 -318 -196 -626
-227 -943 -95 -388 162 -695 649 -737 1172 -12 144 -22 194 -51 248 -88 166
-322 238 -486 151 -333 -177 -696 -914 -793 -1606 -117 -835 257 -1541 1120
-2111 314 -207 303 -187 255 -493 -89 -571 -55 -1042 125 -1721 58 -219 95
-381 126 -545 49 -256 16 -833 -61 -1066 -76 -229 -311 -513 -660 -799 -290
-237 -328 -315 -381 -790 -32 -294 -20 -409 125 -1150 44 -223 96 -493 116
-600 20 -107 47 -253 60 -325 13 -71 29 -159 35 -195 13 -75 77 -396 90 -455
27 -111 132 -621 160 -770 77 -416 76 -417 -295 -426 -279 -7 -353 -20 -466
-80 -324 -173 -234 -596 143 -675 65 -14 295 -14 2178 -4 1158 7 2150 10 2205
6 94 -6 1444 -6 10955 -2 4309 1 3928 -5 4052 63 254 138 250 511 -7 637 -82
40 -181 55 -424 65 -288 12 -4173 3 -4406 -10 -564 -31 -501 -74 -694 471
-137 387 -145 406 -246 660 -167 417 -329 978 -429 1485 -56 289 -92 516 -170
1085 -82 593 -104 1145 -71 1730 8 140 20 431 26 645 16 544 -7 516 369 445
85 -16 232 -43 325 -60 386 -70 772 -152 814 -173 86 -42 97 -103 107 -602 13
-604 -64 -806 -422 -1105 -278 -233 -335 -334 -378 -669 -32 -248 -8 -400 110
-704 248 -637 429 -699 979 -336 550 364 941 1241 1045 2349 13 144 57 497 71
570 5 30 29 163 54 295 142 778 76 1102 -301 1465 -194 187 -1061 820 -1494
1090 -256 160 -262 175 -215 449 37 212 60 326 121 603 108 495 165 856 199
1273 69 837 222 1380 525 1865 152 244 218 284 346 211 172 -99 193 -229 89
-551 -199 -618 -218 -1057 -66 -1520 153 -463 358 -703 612 -718 201 -12 303
112 329 397 12 133 31 213 85 371 102 295 134 314 422 250 481 -107 734 -107
1058 1 738 247 1065 701 1233 1714 34 201 38 240 52 505 10 179 55 602 86 805
27 183 73 627 94 910 22 303 51 649 76 895 25 239 29 619 10 845 -54 639 -58
614 137 887 179 253 266 417 415 783 239 586 273 660 318 671 52 13 78 -27
154 -236 163 -448 277 -674 603 -1193 182 -289 199 -373 152 -732 -26 -201
-27 -705 -2 -964 9 -95 24 -298 32 -450 21 -399 63 -871 105 -1181 10 -80 24
-190 30 -245 6 -55 22 -172 35 -260 33 -227 53 -414 70 -688 28 -433 183
-1065 322 -1312 215 -381 653 -699 1092 -795 275 -60 471 -49 956 54 181 39
238 33 297 -30 65 -70 160 -350 183 -541 24 -195 35 -253 56 -304 118 -274
560 -170 727 172 255 521 301 1179 122 1744 -140 441 -144 567 -26 689 112
115 229 119 308 9 282 -390 580 -1245 658 -1888 11 -93 25 -197 30 -230 5 -33
16 -148 25 -255 8 -107 17 -208 20 -225 2 -16 11 -122 20 -235 21 -275 38
-408 80 -607 146 -692 149 -711 121 -776 -23 -55 -105 -120 -397 -313 -764
-504 -1254 -888 -1430 -1119 -171 -226 -214 -370 -214 -715 1 -260 6 -315 61
-725 19 -143 46 -339 59 -435 113 -837 295 -1614 450 -1925 261 -524 998
-1003 1309 -851 229 112 459 772 416 1197 -27 271 -112 428 -390 714 -310 319
-406 557 -440 1080 -33 528 58 607 855 739 537 89 664 97 709 47 139 -154 170
-1864 51 -2836 -40 -327 -84 -637 -111 -785 -133 -721 -185 -923 -321 -1250
-140 -334 -194 -489 -299 -859 -140 -494 -228 -672 -364 -735 -45 -21 -45 -21
-2060 -21 -1481 0 -2063 -3 -2195 -12 -99 -7 -308 -13 -465 -13 -438 -1 -539
-26 -692 -175 -196 -192 -96 -475 202 -570 74 -24 488 -31 935 -16 323 10 864
11 7830 13 11195 4 10523 2 10597 26 224 74 326 307 225 514 -76 154 -165 186
-558 196 -281 8 -290 10 -329 75 -48 78 -11 334 180 1237 77 364 94 460 145
810 53 365 77 494 154 831 105 455 105 460 105 774 1 575 -49 708 -366 988
-249 219 -457 443 -576 620 -265 393 -270 905 -15 1787 176 608 215 995 159
1580 -47 505 -58 466 184 642 978 710 1274 1381 1065 2412 -138 683 -562 1334
-871 1338 -206 2 -306 -113 -349 -402 -119 -800 -541 -1274 -1135 -1273 -267
0 -385 42 -702 250 -636 419 -1087 584 -2638 963 -252 61 -835 212 -1270 329
-604 161 -1324 443 -2035 797 -1133 563 -1451 821 -2010 1629 -436 630 -783
1078 -1125 1450 -91 99 -232 254 -314 345 -170 188 -369 387 -568 567 -234
213 -232 221 141 540 475 409 650 711 780 1348 65 321 49 468 -65 582 -123
123 -256 140 -789 103 -71 -5 -404 -14 -739 -19 -823 -14 -936 -27 -1263 -152
-195 -74 -243 -45 -229 136 25 331 141 654 391 1096 310 548 552 817 1100
1228 404 302 465 332 1040 506 884 268 1413 275 2289 34 245 -68 750 -309
1166 -555 312 -186 735 -529 978 -794 382 -417 382 -417 544 -408 331 19 487
262 379 588 -250 753 -1319 1948 -2176 2435 -564 321 -1301 578 -1950 680
-772 121 -1568 59 -2519 -195 -836 -224 -1477 -598 -2222 -1297 -941 -882
-1473 -1833 -1744 -3113 -46 -220 -65 -260 -119 -260 -64 0 -117 83 -210 332
-210 560 -238 1123 -91 1830 180 864 389 1259 990 1872 789 803 1699 1226
3050 1416 313 44 341 50 415 87 276 138 255 527 -37 663 -147 68 -284 79
-1001 80 -651 0 -797 -14 -1297 -126 -620 -139 -1286 -392 -1725 -655 -1372
-821 -2175 -1745 -2580 -2967 -100 -303 -137 -307 -243 -27 -219 576 -317 793
-495 1100 -259 447 -829 1066 -1267 1377 -63 45 -222 157 -353 251 -335 238
-462 309 -947 535 -564 262 -644 287 -1421 447 -327 68 -647 92 -1009 78z
m8013 -2022 c-1 -26 -33 -81 -131 -225 -343 -506 -432 -718 -651 -1551 -163
-617 -175 -748 -132 -1380 59 -860 227 -1429 581 -1975 197 -303 198 -297 -85
-526 -60 -49 -192 -169 -293 -267 -281 -273 -317 -275 -475 -19 -549 888 -797
2223 -596 3207 121 590 331 1147 579 1533 406 633 1215 1442 1203 1203z
m-4527 -51 c318 -160 879 -906 1139 -1515 514 -1205 578 -2321 198 -3500 -109
-339 -438 -966 -528 -1009 -71 -34 -91 -23 -298 166 -129 117 -269 227 -455
357 -174 120 -174 150 2 374 427 548 662 1505 616 2512 -12 269 -29 376 -135
845 -175 770 -292 1103 -534 1513 -155 262 -157 334 -5 257z m10789 -60 c562
-35 1045 -163 1045 -276 0 -44 -24 -47 -390 -55 -1189 -25 -1773 -174 -2535
-647 -277 -173 -784 -559 -998 -762 -668 -632 -1186 -1799 -1187 -2675 -1
-596 6 -590 -774 -583 -515 4 -497 -15 -427 463 203 1381 652 2296 1567 3196
409 401 1073 809 1651 1013 54 19 149 53 211 75 400 144 949 242 1427 254 55
2 134 4 175 5 41 1 147 -3 235 -8z m-16360 -29 c541 -69 1039 -233 1600 -525
484 -252 782 -458 1165 -805 604 -547 1131 -1406 1375 -2241 70 -241 218
-1048 219 -1200 2 -176 5 -175 -594 -175 -632 0 -599 -19 -625 350 -72 1011
-391 1871 -971 2619 -608 784 -1900 1531 -2794 1616 -63 6 -167 17 -230 25
-133 17 -309 30 -640 49 -342 20 -384 49 -195 137 336 156 1108 224 1690 150z
m1185 -4865 c597 -51 855 -159 1229 -513 345 -326 412 -349 1096 -363 901 -19
1139 -54 1482 -215 280 -132 459 -275 678 -540 367 -446 462 -952 355 -1910
-11 -99 -36 -405 -55 -680 -19 -275 -39 -536 -45 -580 -30 -256 -64 -497 -95
-695 -60 -371 -94 -595 -120 -795 -64 -479 -108 -637 -231 -822 -372 -559
-1106 -521 -1393 72 -27 55 -83 171 -124 258 -257 535 -536 869 -1063 1272
-635 486 -834 847 -804 1457 12 251 -4 342 -79 452 -131 190 -373 206 -553 38
-92 -86 -121 -160 -132 -334 -4 -56 -14 -193 -22 -303 -18 -230 -16 -249 38
-485 90 -392 235 -675 503 -985 147 -170 148 -190 9 -375 -400 -535 -572 -955
-695 -1695 -33 -198 -68 -405 -79 -461 -22 -118 -75 -506 -124 -924 -47 -389
-51 -417 -146 -816 -70 -293 -274 -946 -387 -1234 -96 -244 -192 -403 -402
-660 -193 -237 -251 -413 -291 -888 -38 -460 -50 -2295 -17 -2667 10 -110 26
-308 37 -440 71 -890 151 -1314 382 -2014 156 -475 166 -612 49 -664 -67 -30
-144 -14 -289 58 -253 126 -314 248 -607 1220 -36 121 -128 411 -205 645 -160
491 -303 966 -431 1435 -118 433 -196 706 -271 945 -33 107 -83 267 -110 355
-27 88 -87 275 -133 415 -46 140 -107 342 -134 448 -100 382 -254 856 -329
1012 -134 278 -442 347 -659 147 -118 -108 -120 -230 -13 -599 23 -78 61 -213
85 -298 24 -85 57 -202 74 -259 65 -219 36 -267 -177 -291 -375 -42 -1114 -23
-1562 40 -1184 167 -1879 338 -1971 486 -38 63 -41 92 -49 584 -16 951 -85
1220 -347 1343 -157 73 -336 26 -445 -118 -77 -102 -83 -203 -36 -615 87 -777
-27 -1432 -344 -1960 -366 -610 -520 -804 -948 -1190 -411 -371 -571 -483
-1137 -796 -684 -378 -812 -489 -882 -765 -105 -413 -72 -1080 95 -1944 62
-317 30 -374 -206 -375 -297 0 -337 89 -515 1130 -77 452 -111 642 -151 835
-105 513 -137 732 -138 945 -1 228 0 230 280 473 413 358 752 857 818 1203 26
141 59 678 53 879 -7 236 -28 334 -173 820 -240 802 -239 1330 1 2120 277 909
795 1478 1800 1975 531 263 794 352 1480 504 386 86 555 125 1094 255 824 199
1150 302 1756 553 948 392 1281 568 2015 1058 587 393 962 793 1600 1710 174
250 308 421 624 800 330 396 444 516 663 702 84 71 194 175 245 231 411 453
626 542 1205 498 233 -18 296 5 385 143 143 222 74 508 -152 619 -42 20 -63
22 -320 28 -375 9 -520 40 -785 169 -373 181 -648 429 -789 710 -71 143 -61
216 36 241 51 13 799 2 998 -15z m14059 18 c269 -54 -198 -657 -708 -913 -202
-102 -402 -150 -756 -181 -337 -29 -426 -59 -540 -181 -148 -158 -136 -339 34
-510 136 -137 155 -142 486 -150 493 -12 601 -63 1092 -514 60 -55 192 -174
292 -265 322 -290 611 -631 1066 -1260 629 -869 1162 -1483 1520 -1751 700
-523 1803 -1064 2955 -1449 275 -92 641 -195 1155 -325 371 -94 460 -115 850
-200 1303 -283 2128 -664 2715 -1254 349 -350 532 -694 735 -1382 125 -425
138 -524 133 -1021 -6 -481 -9 -501 -173 -998 -196 -591 -227 -799 -176 -1185
5 -38 17 -158 26 -265 26 -305 47 -382 168 -597 171 -304 365 -542 631 -777
288 -254 300 -279 313 -656 9 -281 -14 -462 -147 -1140 -43 -223 -102 -526
-130 -675 -162 -853 -240 -985 -562 -951 -155 17 -185 80 -153 321 208 1534
162 2023 -227 2401 -99 97 -277 216 -603 404 -361 208 -442 257 -570 346 -512
351 -968 782 -1199 1129 -394 594 -541 985 -626 1664 -60 484 -61 556 -8 846
71 393 32 542 -167 641 -154 76 -340 43 -455 -82 -174 -189 -243 -789 -169
-1474 30 -276 17 -373 -59 -425 -76 -52 -447 -151 -882 -235 -140 -27 -322
-63 -405 -79 -688 -137 -937 -164 -1510 -163 -637 1 -861 27 -900 103 -24 44
-20 67 69 420 190 753 181 887 -68 1005 -168 80 -333 58 -452 -61 -71 -71 -93
-126 -168 -415 -36 -140 -99 -365 -140 -500 -69 -225 -115 -363 -300 -894
-115 -328 -306 -944 -446 -1441 -121 -430 -192 -673 -265 -910 -40 -132 -87
-287 -105 -345 -17 -58 -69 -222 -115 -365 -45 -143 -142 -451 -214 -685 -198
-638 -235 -748 -291 -861 -146 -297 -261 -352 -500 -243 -153 70 -163 159 -53
457 161 439 310 1082 368 1587 3 30 15 118 25 195 19 137 24 192 55 635 55
776 59 1581 10 2195 -8 99 -24 311 -35 470 -54 769 -71 830 -283 1053 -214
224 -250 293 -519 992 -180 469 -212 555 -244 660 -83 273 -141 608 -204 1195
-22 198 -53 450 -69 560 -17 110 -44 299 -61 420 -84 603 -254 1208 -437 1555
-96 181 -213 381 -280 478 -130 188 -131 209 -7 377 248 334 385 619 487 1010
67 259 62 781 -10 933 -92 197 -345 322 -484 240 -151 -89 -204 -217 -213
-519 -22 -728 -153 -965 -831 -1509 -576 -462 -660 -560 -916 -1073 -289 -577
-373 -701 -567 -828 -379 -249 -951 -88 -1160 326 -69 138 -93 259 -137 690
-14 138 -27 261 -30 275 -3 14 -16 108 -30 210 -13 102 -33 248 -44 325 -28
196 -49 365 -76 620 -13 121 -31 283 -39 360 -80 715 -112 1308 -103 1925 7
493 12 510 222 820 328 485 488 636 846 796 383 172 627 205 1367 184 729 -21
749 -15 1097 335 333 334 607 460 1134 520 188 22 1095 44 1170 29z m12326
-8098 c63 -63 84 -358 37 -531 -65 -237 -244 -478 -497 -668 -297 -223 -385
-202 -554 133 -121 239 -115 272 67 382 347 209 526 350 765 606 101 108 137
123 182 78z m-39618 -36 c18 -10 96 -80 173 -154 220 -211 386 -329 651 -461
233 -117 242 -133 167 -323 -159 -410 -223 -458 -465 -347 -423 194 -667 565
-668 1015 0 246 44 330 142 270z m6659 -5795 c569 -132 1613 -187 2354 -123
535 45 512 59 645 -392 36 -124 117 -380 180 -570 134 -406 145 -444 224 -745
33 -126 83 -306 111 -400 28 -93 112 -393 186 -665 74 -272 168 -605 209 -740
40 -135 103 -346 139 -470 69 -238 113 -368 220 -648 104 -272 196 -600 196
-703 0 -129 -29 -132 -845 -109 -611 18 -3371 14 -3975 -5 -592 -19 -687 -17
-764 18 -86 40 -138 128 -323 541 -47 105 -141 310 -208 456 -175 375 -296
685 -464 1185 -119 356 -151 488 -158 670 -9 235 19 287 237 434 275 187 515
417 900 866 297 347 525 719 695 1135 113 276 147 308 311 288 34 -4 92 -14
130 -23z m26491 9 c36 -26 72 -99 129 -259 172 -484 543 -1034 1049 -1554 218
-224 370 -353 644 -547 260 -184 255 -301 -54 -1244 -143 -436 -214 -606 -423
-1020 -101 -201 -218 -439 -259 -530 -203 -449 -193 -443 -702 -422 -350 15
-3602 25 -4051 12 -1012 -29 -1036 -28 -1080 27 -52 66 8 315 191 800 83 220
117 339 160 555 41 210 76 330 269 913 87 264 188 579 224 700 67 225 125 414
216 705 28 91 87 282 131 425 274 886 365 1170 395 1222 51 89 90 96 429 73
246 -17 1225 -24 1410 -11 270 20 550 62 945 141 80 16 156 31 170 34 66 11
179 1 207 -20z m3966 -2333 c314 -157 376 -333 338 -961 -46 -763 -120 -1171
-325 -1790 -175 -533 -133 -505 -761 -505 -479 0 -484 0 -524 49 -40 49 -27
186 39 386 47 145 566 1610 733 2070 134 370 152 426 191 593 53 222 115 254
309 158z m-34514 14 c39 -20 61 -69 121 -270 53 -179 56 -188 200 -600 50
-143 136 -404 190 -580 111 -361 243 -749 318 -935 137 -343 240 -724 213
-792 -26 -69 -28 -69 -506 -65 -469 4 -479 5 -538 62 -168 163 -502 1452 -538
2075 -36 629 13 802 284 1006 147 111 196 130 256 99z M22330 40523 c-316 -86
-409 -459 -174 -696 32 -32 117 -102 188 -156 168 -126 235 -198 375 -405 130
-192 167 -226 240 -226 220 0 338 687 175 1013 -158 313 -545 540 -804 470z
M29150 40550 c-179 -23 -418 -163 -549 -322 -171 -207 -207 -491 -116 -924 67
-318 235 -357 381 -88 145 270 228 354 545 547 162 99 216 207 207 408 -11
255 -207 414 -468 379z M25450 34089 c-1190 -120 -2336 -1027 -2753 -2180
-352 -970 -279 -1981 215 -3014 246 -513 684 -1300 921 -1655 169 -253 329
-504 452 -710 507 -848 1231 -1828 1416 -1918 168 -81 363 78 747 605 207 286
273 379 490 694 62 90 176 254 253 364 453 648 713 1089 1139 1935 142 283
300 587 351 675 180 314 315 701 443 1275 235 1047 -237 2356 -1124 3122 -281
243 -935 599 -1285 701 -307 90 -920 141 -1265 106z m705 -798 c827 -95 1315
-409 1815 -1167 356 -539 524 -1358 401 -1955 -117 -570 -398 -1275 -651
-1634 -116 -165 -146 -219 -319 -576 -75 -156 -157 -272 -285 -408 -132 -140
-170 -194 -294 -423 -120 -222 -304 -504 -605 -931 -444 -630 -430 -624 -656
-241 -131 221 -210 341 -416 629 -248 347 -347 496 -444 670 -47 83 -145 249
-219 370 -208 337 -357 612 -579 1063 -111 227 -251 497 -310 600 -292 511
-397 963 -363 1559 37 643 155 955 547 1443 503 627 1027 929 1758 1014 106
12 465 4 620 -13z M25570 32490 c-711 -99 -1349 -700 -1489 -1400 -118 -596
24 -1134 439 -1660 349 -444 916 -615 1590 -479 476 96 658 178 881 399 515
509 758 1254 583 1785 -86 262 -376 741 -554 915 -317 309 -968 507 -1450 440z
m363 -715 c381 -66 700 -350 847 -754 170 -465 -42 -1049 -455 -1251 -506
-249 -1055 -128 -1330 293 -235 362 -269 750 -96 1113 223 468 584 677 1034
599z M47820 11455 c-213 -46 -316 -129 -953 -769 -731 -734 -800 -812 -854
-967 -131 -378 178 -695 651 -666 187 11 238 39 752 420 877 650 1148 893
1269 1140 223 458 -296 963 -865 842z M13572 9592 c-83 -83 4 -350 182 -557
256 -297 327 -516 265 -818 -32 -157 -18 -189 109 -258 700 -382 1112 -1084
1239 -2110 24 -199 24 -678 0 -904 -179 -1642 -1538 -2671 -3076 -2329 -812
181 -1436 822 -1720 1764 -194 647 -218 1184 -81 1827 165 779 468 1307 964
1679 173 130 186 157 148 309 -96 377 -31 547 340 878 123 110 162 188 183
363 18 163 -56 186 -367 110 -1040 -251 -1865 -859 -2461 -1811 -612 -978
-775 -2294 -447 -3605 407 -1625 1732 -2736 3495 -2929 645 -71 1063 -44 1715
110 1645 389 2733 1629 2991 3409 143 991 3 1927 -426 2857 -355 770 -1192
1513 -2050 1821 -400 144 -948 249 -1003 194z M37735 9556 c-268 -42 -515
-202 -670 -436 -57 -86 -212 -404 -315 -650 -197 -467 -255 -604 -349 -817
-54 -125 -198 -460 -319 -743 -121 -283 -281 -659 -357 -835 -75 -176 -222
-520 -327 -765 -105 -245 -292 -679 -415 -965 -124 -286 -256 -592 -293 -680
-37 -88 -165 -385 -285 -660 -389 -896 -404 -933 -412 -1076 -28 -448 491
-746 1082 -622 303 64 416 154 560 448 241 491 367 807 471 1174 75 263 99
304 197 333 69 19 3308 12 3356 -8 76 -32 93 -60 171 -274 153 -422 421 -1058
530 -1253 139 -252 364 -391 711 -443 402 -59 746 98 900 411 122 250 105 331
-238 1110 -102 231 -241 555 -310 720 -154 372 -170 407 -303 685 -60 124
-160 353 -223 510 -64 157 -137 335 -162 395 -26 61 -75 178 -110 260 -34 83
-125 290 -200 460 -76 171 -182 416 -235 545 -54 129 -175 411 -268 626 -94
215 -226 530 -295 700 -311 774 -619 1383 -789 1559 -238 248 -660 359 -1103
291z m278 -2043 c35 -38 118 -226 387 -882 78 -190 219 -518 354 -817 139
-312 456 -1108 456 -1147 0 -111 99 -103 -1205 -99 -1206 4 -1179 3 -1205 53
-32 59 71 341 377 1034 210 474 362 862 513 1310 189 561 235 639 323 548z
M31988 9550 c-270 -32 -476 -193 -567 -444 -65 -181 -62 -80 -71 -2246 -11
-2730 -9 -2651 -74 -2658 -41 -5 -61 18 -277 303 -104 138 -283 374 -399 525
-199 259 -357 476 -515 705 -103 149 -235 323 -360 475 -232 281 -379 473
-822 1075 -60 83 -245 332 -409 555 -165 223 -351 476 -414 564 -302 418 -642
828 -779 940 -204 166 -507 231 -871 185 -305 -38 -552 -232 -653 -516 -75
-208 -82 -454 -69 -2558 5 -924 7 -2240 5 -2925 -6 -1597 -1 -1708 84 -1880
258 -524 1238 -488 1478 54 68 153 63 -68 65 2811 1 2365 -2 2237 59 2243 45
5 72 -26 312 -349 108 -145 269 -363 359 -484 90 -121 278 -382 418 -580 256
-362 503 -694 783 -1055 362 -465 717 -950 1089 -1485 333 -478 777 -1053 945
-1221 433 -434 1259 -393 1538 78 98 164 121 329 112 773 -3 160 -8 1620 -10
3245 -4 3363 -1 3223 -89 3440 -128 318 -452 478 -868 430z M43935 9540 c-367
-36 -630 -234 -741 -558 -51 -147 -51 -170 -41 -1702 11 -1621 14 -3186 8
-4455 -4 -961 -3 -975 54 -1118 224 -559 1245 -562 1509 -4 66 141 61 -78 61
2582 1 2518 -1 2453 42 2469 24 9 68 -20 115 -76 86 -101 619 -826 853 -1158
160 -228 263 -369 525 -721 129 -174 274 -369 321 -435 48 -65 144 -191 214
-279 303 -380 488 -635 811 -1115 250 -370 380 -549 554 -760 56 -69 163 -200
236 -291 405 -505 593 -620 1019 -623 495 -3 789 203 881 616 21 93 25 6740 4
6926 -55 495 -294 705 -805 706 -430 1 -645 -141 -738 -489 -41 -154 -41 -139
-41 -2520 -1 -2176 -2 -2292 -19 -2318 -36 -55 -91 -26 -183 98 -17 22 -115
149 -220 283 -495 637 -641 830 -818 1085 -187 270 -299 424 -435 596 -131
167 -307 407 -536 731 -294 417 -478 674 -620 865 -188 252 -373 504 -514 700
-474 655 -622 806 -884 900 -168 60 -404 85 -612 65z M3125 9510 c-857 -5
-1177 -9 -1224 -19 -311 -59 -510 -282 -586 -657 -51 -249 -49 -123 -52 -3334
-2 -1653 -4 -3138 -6 -3300 -3 -415 33 -542 202 -710 341 -339 1146 -252 1359
148 109 204 113 263 115 1612 2 901 2 916 22 950 42 71 34 70 570 70 1713 0
2144 43 2710 267 641 253 940 498 1282 1050 300 486 385 1047 282 1868 -72
575 -469 1222 -940 1534 -581 385 -1183 534 -2143 529 -237 -1 -953 -5 -1591
-8z m1772 -1338 c809 -91 1209 -524 1207 -1307 -1 -765 -438 -1153 -1386
-1231 -282 -23 -1669 -26 -1712 -4 -77 40 -70 -75 -72 1263 -1 1283 -3 1238
51 1273 48 31 90 33 910 30 750 -3 824 -5 1002 -24z M18361 9488 c-358 -35
-576 -309 -558 -703 17 -384 239 -604 627 -621 63 -3 914 -6 1891 -7 1732 -2
1777 -2 1798 -21 54 -49 46 -61 -230 -397 -201 -244 -428 -521 -822 -1004
-259 -317 -457 -556 -567 -689 -42 -50 -114 -138 -160 -196 -47 -58 -166 -202
-265 -320 -509 -608 -610 -732 -760 -930 -90 -118 -239 -308 -332 -421 -92
-114 -280 -349 -418 -524 -137 -175 -314 -398 -392 -496 -498 -626 -596 -805
-594 -1089 1 -334 200 -622 472 -684 116 -27 5912 -34 5996 -8 287 90 456 450
388 826 -43 241 -180 392 -440 483 -80 28 -80 28 -2090 28 -2103 0 -2041 -1
-2067 39 -30 45 -1 92 221 356 95 113 272 327 394 475 121 149 316 385 431
525 116 140 293 359 396 485 102 127 230 286 285 354 112 139 426 516 675 811
260 309 394 469 586 705 196 240 257 315 570 695 486 590 818 1033 870 1160
213 525 -46 1118 -512 1170 -118 13 -5258 11 -5393 -2z"/></g>
</g>
</svg>
